<svg xmlns="http://www.w3.org/2000/svg" width="60" height="40" viewBox="0 0 60 40"><rect width="60" height="40" fill="#FFFFFF"/><path d="M20 13L25 27H22L21 24H16L15 27H12L17 13H20ZM20 21L19 18.5L18 16H19L18 21H20Z" fill="#1434CB"/><path d="M26 13H29L33 22L37 13H40V27H37V17L33 27H30L26 17V27H23V13H26Z" fill="#1434CB"/><path d="M41 13H44V24H50V27H41V13Z" fill="#1434CB"/><path d="M51 20C51 16 54 12 58 12C59.5 12 61 12.5 62 13L61 16C60 15.5 59 15 58 15C56 15 54 17 54 20C54 23 56 25 58 25C59 25 60 24.5 61 24L62 27C61 27.5 59.5 28 58 28C54 28 51 24 51 20Z" fill="#1434CB"/></svg>
